<?xml version="1.0" standalone="no"?>
<!DOCTYPE svg PUBLIC "-//W3C//DTD SVG 20010904//EN"
 "http://www.w3.org/TR/2001/REC-SVG-20010904/DTD/svg10.dtd">
<svg version="1.0" xmlns="http://www.w3.org/2000/svg"
 width="293.000000pt" height="293.000000pt" viewBox="0 0 293.000000 293.000000"
 preserveAspectRatio="xMidYMid meet">
<metadata>
Created by potrace 1.11, written by Peter Selinger 2001-2013
</metadata>
<g transform="translate(0.000000,293.000000) scale(0.100000,-0.100000)"
fill="#000000" stroke="none">
<path d="M445 2924 c-130 -19 -325 -86 -325 -112 0 -5 13 -15 30 -22 42 -18
114 -98 149 -168 69 -137 95 -301 88 -555 -5 -184 -21 -306 -57 -427 -11 -35
-18 -65 -17 -66 1 -1 56 27 122 63 272 149 570 270 764 309 60 12 117 15 202
12 l119 -4 0 35 c0 67 -29 231 -55 306 -49 147 -126 279 -228 391 l-56 61 111
7 c62 4 114 9 117 12 10 10 -52 55 -124 89 -121 58 -184 67 -515 70 -162 2
-308 1 -325 -1z"/>
<path d="M1435 2719 c-55 -5 -115 -11 -133 -14 l-33 -6 46 -41 c230 -202 313
-625 214 -1086 -11 -52 -19 -96 -16 -98 2 -3 33 12 68 32 212 120 440 220 597
261 100 26 285 37 343 21 21 -6 29 -4 34 10 15 32 18 282 5 361 -68 431 -443
617 -1125 560z"/>
<path d="M1375 1885 c-234 -43 -617 -176 -922 -320 l-112 -53 44 -79 c101
-179 177 -425 197 -639 20 -215 -17 -453 -104 -663 -21 -53 -42 -104 -45 -113
-4 -14 16 -11 143 22 195 50 288 80 453 146 249 100 494 244 666 390 l78 67
-6 78 c-18 233 -119 448 -298 634 l-57 60 30 89 c30 90 61 233 72 339 l6 57
-37 -1 c-21 0 -69 -7 -108 -14z"/>
<path d="M2390 1743 c-74 -13 -235 -59 -366 -104 -172 -59 -486 -191 -513
-215 -2 -2 17 -26 42 -54 176 -196 287 -497 287 -780 0 -98 -21 -245 -48 -342
-11 -38 -16 -68 -12 -68 18 0 320 157 436 227 183 110 282 183 394 290 156
149 191 239 191 484 -1 84 -7 167 -16 213 -38 182 -109 319 -180 346 -26 10
-165 12 -215 3z"/>
</g>
</svg>
